<svg width="240" height="240" viewBox="0 0 240 240" xmlns="http://www.w3.org/2000/svg" role="img" aria-labelledby="title desc">
  <title id="title">Kucing peluk harapan</title>
  <desc id="desc">Ilustrasi kucing pastel membuka tangan untuk memeluk</desc>
  <rect width="240" height="240" rx="32" fill="#fef2f6" />
  <g transform="translate(30 40)">
    <ellipse cx="90" cy="120" rx="85" ry="75" fill="#fde0ee" />
    <ellipse cx="150" cy="120" rx="65" ry="65" fill="#fcd6ec" />
    <ellipse cx="120" cy="115" rx="95" ry="80" fill="#fff5f9" />
    <ellipse cx="90" cy="105" rx="11" ry="15" fill="#3f3d56" />
    <ellipse cx="140" cy="105" rx="11" ry="15" fill="#3f3d56" />
    <path d="M115 138 q10 12 20 0" stroke="#f472b6" stroke-width="6" stroke-linecap="round" fill="none" />
    <circle cx="125" cy="150" r="6" fill="#f472b6" />
    <path d="M55 150 q-30 -5 -38 12" stroke="#fbcfe8" stroke-width="16" stroke-linecap="round" fill="none" />
    <path d="M185 150 q30 -5 38 12" stroke="#fbcfe8" stroke-width="16" stroke-linecap="round" fill="none" />
    <path d="M70 38 Q95 5 120 38" stroke="#f9a8d4" stroke-width="12" stroke-linecap="round" fill="none" />
    <path d="M150 38 Q175 5 200 38" stroke="#f9a8d4" stroke-width="12" stroke-linecap="round" fill="none" />
  </g>
</svg>
